<svg width="760" height="243" viewBox="0 0 760 243" fill="none" xmlns="http://www.w3.org/2000/svg">
<g clip-path="url(#clip0_1018_4466)">
<path d="M647.472 142.713C648.776 126.51 649.717 110.258 651.553 94.1277C652.663 84.4203 655.658 83.4061 664.472 87.4629C666.428 88.3564 669.18 88.5978 671.257 88.0183C677.994 86.1106 684.538 83.5027 691.251 81.4984C695.791 80.1461 696.781 77.3692 696.636 72.9018C696.347 64.4984 696.685 56.0951 696.926 47.6917C696.974 45.9289 697.24 43.828 698.23 42.5241C699.92 40.3266 702.432 36.9459 704.291 37.1391C706.778 37.4047 709.942 40.1334 711.077 42.5965C712.767 46.3152 713.153 50.7101 713.709 54.8635C714.337 59.6448 714.795 64.4502 714.844 69.2555C714.868 73.6746 717.065 74.7854 720.929 74.568C725.927 74.2783 730.95 73.9643 735.973 73.9885C744.618 74.0126 750.944 78.166 754.832 85.7726C760.483 96.8322 761.497 108.447 757.971 120.328C756.04 126.872 753.311 133.174 751.621 139.767C751.065 141.916 751.862 145.176 753.263 146.963C758.551 153.724 757.802 160.147 749.81 163.407C725.662 173.235 701.369 182.653 676.98 191.853C673.455 193.181 668.963 192.94 665.148 192.24C662.781 191.805 660.173 189.583 658.821 187.434C656.31 183.426 654.305 179.007 652.736 174.515C650.901 169.299 649.234 163.89 648.486 158.433C647.761 153.314 648.341 148.001 648.341 142.785C648.027 142.761 647.761 142.737 647.472 142.713ZM701.297 157.25C700.766 150.512 700.403 145.707 700.017 140.902C699.703 136.797 697.892 134.358 693.473 135.879C686.132 138.415 678.791 140.974 671.692 144.041C670.315 144.645 669.108 147.566 669.18 149.329C669.494 155.342 670.484 161.307 671.112 167.295C671.644 172.39 674.396 173.356 678.622 171.376C684.997 168.406 691.445 165.532 697.53 162.055C699.606 160.92 700.669 158.095 701.297 157.25ZM666.524 126.486C667.418 126.993 668.311 127.5 669.229 128.031C678.188 123.684 687.291 119.603 696.033 114.871C700.669 112.359 701.562 106.201 698.906 100.334C696.83 95.7214 692.869 97.291 689.489 97.9913C683.428 99.247 677.367 100.599 671.474 102.459C669.543 103.062 666.886 105.284 666.741 106.95C666.186 113.398 666.524 119.942 666.524 126.486ZM736.335 120.859C730.346 123.081 724.937 125.013 719.577 127.138C718.611 127.524 717.283 128.586 717.21 129.432C716.486 136.966 716.027 144.548 715.447 152.372C727.497 150.995 737.204 135.638 736.335 120.859ZM715.109 103.425C715.037 106.878 716.172 109.317 720.76 107.505C723.344 106.467 726.169 105.743 728.439 104.221C731.916 101.903 739.136 101.831 737.18 95.6973C735.369 90.0225 729.139 92.9927 724.962 93.1859C718.273 93.4515 715.544 96.639 715.109 103.425Z" fill="white"/>
<path d="M580.921 150.513C580.269 170.579 580.124 185.285 574.039 199.122C573.024 201.44 572.445 204.217 572.566 206.752C572.855 213.804 569.233 217.426 562.907 219.43C542.091 226.046 521.107 226.771 499.954 221.386C498.022 220.903 495.704 220.444 494.448 219.14C492.419 217.015 489.86 214.166 489.884 211.63C489.908 209.529 492.951 206.608 495.317 205.569C504.566 201.537 504.783 201.754 504.614 191.322C504.348 174.419 503.986 157.539 503.358 140.66C503.262 138.39 501.813 135.734 500.195 134.02C495.776 129.287 495.1 124.481 499.108 119.459C504.445 112.77 506.884 105.115 508.188 96.8081C508.792 92.8961 509.927 88.8393 511.834 85.3862C513.259 82.8024 516.012 79.7839 518.644 79.2527C528.061 77.3692 537.696 75.3166 547.211 75.4615C564.814 75.7271 574.208 84.855 576.816 104.221C579.134 121.318 579.931 138.632 580.921 150.513ZM556.725 181.76C556.725 177.751 556.918 173.718 556.676 169.71C556.338 164.011 553.465 161.958 547.959 162.731C543.009 163.432 538.034 164.108 533.06 164.349C527.82 164.615 524.85 166.571 524.536 172.197C524.198 178.403 523.304 184.561 522.773 190.767C521.856 201.247 521.88 201.271 532.022 200.764C535.016 200.619 538.034 200.426 541.029 200.064C559.719 197.794 556.29 200.136 556.725 181.76ZM547.669 127.379C543.057 127.814 535.861 128.345 528.713 129.263C524.415 129.818 522.049 135.034 522.918 140.829C523.667 145.852 526.951 145.128 530.573 144.789C535.33 144.355 540.28 143.775 544.917 144.596C558.439 146.987 555.952 148.122 557.449 133.851C557.956 129.069 555.566 126.196 547.669 127.379ZM525.164 107.554C535.451 107.554 545.375 107.554 555.3 107.554C554.382 95.6248 550.446 90.2157 542.478 91.1334C531.732 92.3649 524.053 95.6248 525.164 107.554Z" fill="white"/>
<path d="M308.028 111.297C308.39 108.93 308.438 103.932 310.129 99.5609C311.119 96.9771 314.693 95.3833 317.107 93.3308C318.677 95.7938 321.454 98.1845 321.623 100.744C322.637 116.609 327.926 130.88 336.401 144.162C344.66 157.081 353.643 159.254 366.779 151.406C371.44 148.629 375.907 145.538 380.737 143.075C385.421 140.684 389.236 142.785 388.705 147.88C388.271 152.203 386.967 157.346 384.165 160.389C363.833 182.605 338.889 182.484 321.889 157.95C312.712 144.717 308.511 129.794 308.028 111.297Z" fill="white"/>
<path d="M482.302 67.7101C484.692 63.1462 485.924 58.5581 488.797 55.6363C504.035 40.23 522.822 31.0539 543.83 26.3451C546.1 25.838 548.684 26.1278 551.002 26.6349C556.773 27.8423 561.965 30.2087 562.858 36.9218C563.728 43.5624 558.657 46.267 553.779 48.078C541.56 52.6661 529.197 56.8678 516.785 60.9246C509.54 63.2911 503.117 66.5269 498.553 72.9501C496.211 76.2584 492.589 78.9871 488.822 76.7172C486.045 75.051 484.644 71.1391 482.302 67.7101Z" fill="white"/>
<path d="M292.26 89.6845C293.66 89.7811 295.157 89.612 296.437 90.0708C297.379 90.4089 298.369 91.4473 298.683 92.389C298.876 92.9686 298.007 94.345 297.306 94.6831C284.218 100.961 282.383 114.122 279.389 125.858C276.298 137.98 275.404 150.682 273.593 163.142C273.11 166.474 273.521 170.338 268.885 171.086C264.345 171.811 259.346 171.69 257.076 167.295C254.976 163.214 253.285 158.143 253.672 153.7C255.338 134.092 262.654 116.392 273.835 100.309C278.157 94.0069 283.832 89.3223 292.26 89.6845Z" fill="white"/>
<path d="M394.936 94.4174C394.936 90.6021 394.549 86.7385 395.105 82.9956C395.37 81.1845 397.375 78.2385 398.534 78.2385C400.731 78.2626 403.049 79.9047 405.054 81.257C405.899 81.8124 406.213 83.3337 406.551 84.4686C410.921 99.6575 415.268 114.871 419.615 130.059C419.832 130.832 420.242 131.605 420.242 132.378C420.194 136.917 422.464 142.302 415.896 144.572C410.946 146.287 405.319 144.741 402.808 138.922C399.693 131.653 397.616 123.805 396.119 116.005C394.791 108.954 394.863 101.638 394.332 94.4174C394.549 94.4416 394.743 94.4174 394.936 94.4174Z" fill="white"/>
<path d="M350.383 99.8748C351.421 95.8663 352.484 89.6845 354.754 84.0098C355.888 81.1845 358.955 78.8663 361.66 77.0552C362.891 76.2342 365.982 76.5964 367.045 77.6348C368.059 78.6249 368.276 81.595 367.528 82.9714C361.153 94.6106 364.485 105.936 368.204 117.285C369.001 119.748 370.28 122.067 371.271 124.457C372.792 128.176 374.965 132.088 370.498 135.251C367.045 137.69 359.124 136.265 357.072 132.184C354.609 127.258 353.063 121.777 351.904 116.392C350.89 111.683 350.962 106.781 350.383 99.8748Z" fill="white"/>
<path d="M212.91 217.86C211.751 217.063 210.544 216.315 209.336 215.615C198.397 209.215 187.434 202.913 176.544 196.417C173.936 194.848 171.666 192.723 169.01 190.694C172.632 186.323 175.747 182.895 178.475 179.2C182.629 173.574 180.311 168.527 173.404 167.633C164.711 166.498 158.385 170.652 152.613 176.471C150.923 178.186 148.194 180.48 146.359 180.142C138.511 178.741 130.784 176.64 123.129 174.37C119.821 173.404 118.758 170.265 120.835 167.609C123.346 164.397 126.292 160.968 129.842 159.254C138.149 155.294 146.914 152.299 155.487 148.895C159.471 147.325 162.659 145.321 161.596 140.057C160.534 134.816 157.37 132.571 152.275 132.522C149.619 132.498 146.987 132.522 144.331 132.522C143.92 131.774 143.534 131.025 143.123 130.253C145.949 128.031 148.822 125.906 151.575 123.612C154.859 120.859 155.68 117.309 152.903 114.049C149.305 109.824 150.899 107.844 154.883 105.284C160.316 101.807 161.306 93.862 157.177 90.1433C152.806 86.2072 148.267 82.4885 142.544 77.6106C140.515 80.5083 138.245 83.9615 135.734 87.2456C134.334 89.0566 132.716 90.8919 130.784 91.9785C130.277 92.2683 128.345 89.6603 126.872 88.7186C124.819 87.3904 122.598 85.4586 120.4 85.4103C115.474 85.2654 112.118 88.5495 110.5 92.9444C108.906 97.2668 105.984 99.0055 101.734 99.9231C97.8464 100.744 93.8137 101.831 94.1759 107.481C94.514 112.746 97.4117 114.774 102.169 115.595C103.69 115.861 106.081 117.165 106.201 118.203C106.395 119.845 105.501 122.236 104.221 123.346C101.831 125.423 98.8606 126.872 96.0594 128.441C92.7029 130.349 90.0467 132.547 90.8677 136.966C91.7129 141.578 95.4799 142.085 99.0538 142.664C101.855 143.123 104.728 143.316 107.554 143.63C107.723 144.186 107.868 144.717 108.037 145.272C106.129 146.794 104.342 148.508 102.29 149.788C93.1617 155.511 93.0893 159.157 102.169 164.518C102.434 164.687 102.483 165.194 102.724 165.798C100.068 170.12 97.0978 174.443 94.6106 179.007C89.9259 187.652 85.2171 196.296 81.1603 205.231C79.47 208.95 78.4558 213.828 83.4061 216.46C88.4771 219.14 92.3407 216.387 95.3592 212.451C97.7981 209.264 99.8989 205.811 102.169 202.502C103.352 200.764 104.584 199.073 106.709 196.055C107.216 199.17 107.602 200.643 107.65 202.116C108.061 211.558 108.399 221.024 108.834 230.465C108.93 232.446 109.196 234.474 109.751 236.357C111.079 240.921 114.701 242.443 119.024 242.612C123.443 242.781 125.037 239.473 125.592 236.044C126.703 229.137 127.524 222.159 127.983 215.156C128.369 209.215 128.055 203.203 128.055 195.5C134.092 198.035 138.535 199.725 142.834 201.778C163.673 211.775 184.416 221.917 205.279 231.842C209.916 234.039 215.059 235.657 218.802 230.248C221.724 225.998 219.961 222.593 212.91 217.86ZM128.128 129.794C129.552 129.794 130.977 131.653 132.426 132.691C131.218 133.682 130.011 134.647 128.272 136.048C126.486 134.72 125.085 133.682 123.709 132.643C125.182 131.605 126.655 129.794 128.128 129.794Z" fill="white"/>
<path d="M42.2581 164.47C38.467 163.528 34.0962 165.17 30.0153 165.074C27.6246 165.001 24.2198 164.591 23.0849 163.021C20.0181 158.819 17.4343 159.761 14.9713 162.924C12.9187 165.556 10.7696 168.551 10.021 171.69C7.96843 180.214 6.61616 188.907 4.97412 197.528C5.36048 197.6 5.77099 197.649 6.15736 197.721C6.15736 200.329 6.01247 202.937 6.18151 205.545C7.19571 220.806 9.41729 222.183 23.2539 216.242C44.7695 207.018 44.7695 207.018 52.7382 184.826C56.5777 174.105 53.3419 167.223 42.2581 164.47ZM27.5039 196.538C26.6587 196.224 25.8377 195.91 24.9925 195.596C22.9158 191.081 24.7269 188.279 29.0494 186.565C29.7255 186.831 30.4016 187.096 31.0536 187.362C29.8704 190.404 28.6871 193.471 27.5039 196.538Z" fill="white"/>
<path d="M89.5396 87.0766C97.7257 84.8067 105.984 81.8848 113.301 77.7072C121.777 72.8777 124.167 64.6192 121.197 57.1817C117.841 48.7783 109.196 44.142 99.7782 45.4459C97.6774 45.7357 95.4075 45.6633 93.3067 45.2769C86.9317 44.0454 83.6717 45.4701 81.9814 51.7243C80.4118 57.4956 79.784 63.5084 78.7456 69.2797C79.0837 73.1192 79.0354 76.7655 79.7598 80.2428C80.8464 85.3138 84.9999 88.3322 89.5396 87.0766ZM99.9714 59.5723C101.058 60.6107 101.131 60.6831 102.217 61.7215C101.493 63.5567 100.623 65.8266 99.899 67.686C98.3535 67.7343 98.2086 67.7343 96.639 67.7826C95.0211 63.8465 96.4459 61.2385 99.9714 59.5723Z" fill="white"/>
<path d="M18.497 85.3379C18.5936 85.6035 18.6902 85.8933 18.7868 86.1589C27.1178 84.1547 35.5695 82.5851 43.7314 80.0254C49.6717 78.166 51.7484 73.5055 48.8507 68.7726C45.9771 64.1121 47.1362 60.1036 48.5126 55.6604C51.0723 47.3777 48.5368 40.23 41.4615 35.159C35.3038 30.74 29.1703 33.1547 28.4942 40.7613C27.9871 46.3152 28.3976 51.9899 28.784 57.5922C29.0737 61.7698 27.6007 64.1362 23.4232 64.7399C18.2797 65.4885 13.1121 66.7925 7.96865 66.7925C1.37634 66.7683 -0.169115 69.7626 -8.10353e-05 75.7271C0.144805 80.8947 1.83514 83.6476 7.14763 84.0098C10.963 84.2512 14.73 84.8791 18.497 85.3379Z" fill="white"/>
<path d="M90.3848 34.4346C95.1661 35.7627 100.116 36.3905 106.129 37.5496C116.102 35.6178 126.92 33.686 137.618 31.3437C139.791 30.8607 141.964 29.1945 143.582 27.5283C148.895 22.071 147.228 14.3437 139.912 12.4602C135.927 11.446 131.146 11.9048 127.089 13.0156C121.922 14.4403 119.435 13.1846 118.565 8.04117C118.372 6.6889 118.179 5.071 117.358 4.1051C115.933 2.41476 113.929 -0.0724521 112.287 -9.04407e-06C110.258 0.0965817 108.158 2.29402 106.467 3.98436C105.598 4.85367 105.284 6.54401 105.139 7.89628C104.246 16.0582 100.31 20.5497 91.5681 20.3565C88.0425 20.284 84.7101 21.5397 84.2996 25.9587C83.8891 30.4985 86.4005 33.3479 90.3848 34.4346Z" fill="white"/>
<path d="M139.984 55.7811C139.96 55.9743 139.912 56.1675 139.887 56.3848C138.245 70.0283 142.568 74.8578 156.429 74.9061C167.126 74.9544 172.946 70.9942 176.23 60.9004C177.316 57.5198 177.775 53.8735 178.041 50.2996C178.765 40.3508 170.724 33.0099 160.92 34.4587C144.572 36.8252 141.988 39.4573 139.984 55.7811ZM159.35 49.9857C160.437 51.024 160.51 51.0965 161.596 52.1348C160.872 53.9701 160.002 56.2399 159.278 58.0993C157.733 58.1476 157.588 58.1476 156.018 58.1959C154.4 54.2598 155.825 51.6519 159.35 49.9857Z" fill="white"/>
<path d="M11.0356 117.937C20.7188 120.69 30.4262 120.376 40.1577 118.541C45.1804 117.575 48.1747 114.412 48.6577 109.051C49.1648 103.473 46.2671 99.9955 41.4858 98.6674C35.1833 96.9046 28.6151 96.0595 22.9645 94.9728C18.4006 95.5765 14.7543 95.7455 11.2771 96.5907C5.89213 97.9188 3.57395 101.589 3.5498 107.216C3.5498 112.77 5.43332 116.344 11.0356 117.937Z" fill="white"/>
<path d="M34.8932 121.511C25.6446 121.125 17.0964 123.829 9.51399 129.166C5.96428 131.653 4.61201 135.638 6.7853 139.211C8.25831 141.65 11.7114 142.93 14.0538 144.572C22.8194 142.713 30.5225 141.433 37.9841 139.38C42.4997 138.149 44.7696 134.478 43.9969 129.576C43.1758 124.481 39.7227 121.728 34.8932 121.511Z" fill="white"/>
</g>
<defs>
<clipPath id="clip0_1018_4466">
<rect width="760" height="242.636" fill="white"/>
</clipPath>
</defs>
</svg>