<svg xmlns="http://www.w3.org/2000/svg" width="256" height="256"><path fill-opacity=".016" d="M0 128.004v128.004l128.25-.254 128.25-.254.254-127.75L257.008 0H0v128.004m.485.496c0 70.4.119 99.053.265 63.672.146-35.38.146-92.98 0-128C.604 29.153.485 58.1.485 128.5" fill="#1976D2" fill-rule="evenodd"/><path fill-opacity=".43" d="M114.688 21.502c-8.468 2.327-16.008 6.789-22.803 13.495C80.751 45.982 75.24 60.176 76.353 75c1.019 13.567 6.13 24.708 15.597 34 20.335 19.958 52.312 19.737 72.55-.5 19.948-19.949 20.601-51.467 1.489-71.833-10.642-11.34-23.191-16.748-38.467-16.578-4.412.05-10.188.685-12.834 1.413M75.024 133.603c-13.063 3.51-19.802 9.977-43.149 41.397C2.275 214.838.906 216.803.344 220.268c-.749 4.618 1.848 10.268 5.846 12.713 3.281 2.008 4.349 2.023 122.955 1.772 118.06-.25 119.675-.279 121.857-2.253 1.216-1.1 3.063-3.67 4.104-5.71 2.008-3.934 2.591-9.339.894-8.29-.55.34-1-.011-1-.78 0-1.652-46.451-64.234-52.404-70.601-12.922-13.822-30.54-18.213-47.578-11.859-8.097 3.019-17.449 12.744-22.58 23.481-2.166 4.532-4.163 8.23-4.438 8.217-.275-.013-2.373-3.947-4.662-8.741-6.541-13.703-15.199-21.384-27.798-24.665-7.292-1.899-13.316-1.884-20.516.051M.232 222c0 1.925.206 2.713.457 1.75.252-.963.252-2.537 0-3.5-.251-.963-.457-.175-.457 1.75" fill="#1976D2" fill-rule="evenodd"/><path fill-opacity=".063" d="M121.387 20.999C91.165 25.426 71.545 54.232 78.54 83.907c6.367 27.014 34.478 44.33 61 37.575 32.255-8.215 48.451-42.213 34.356-72.123-8.983-19.062-31.811-31.391-52.509-28.36M43.754 159.75c-3.54 4.813-14.438 19.507-24.218 32.654C9.756 205.551 1.332 217.834.817 219.7c-1.216 4.404 1.337 9.877 6.081 13.037L10.296 235h117.451c133.823 0 122.42.781 127.072-8.703 1.614-3.291 2.262-5.667 1.663-6.096-.54-.386-1.701-2.082-2.58-3.767-2.298-4.408-47.929-65.434-48.927-65.434-1.366 0-9.009 7.691-43.878 44.158l-33.14 34.657-10.723-11.157c-27.667-28.788-36.797-38.225-50.695-52.399C58.31 157.866 51.265 151 50.883 151c-.381 0-3.59 3.938-7.129 8.75M.079 222.583c.048 1.165.285 1.402.604.605.289-.722.253-1.585-.079-1.917-.332-.332-.568.258-.525 1.312" fill="#1976D2" fill-rule="evenodd"/><path fill-opacity=".381" d="M192.391 164.216c-7.21 7.306-24.49 25.209-38.4 39.784s-25.647 26.5-26.083 26.5c-.436 0-17.581-17.518-38.1-38.929-20.519-21.411-37.838-39.1-38.487-39.31-1.071-.346-14.104 16.563-40.53 52.585C2.869 215.644 1 218.852 1 221.646c0 5.241 2.576 9.258 7.316 11.411 4.032 1.83 8.367 1.9 119.184 1.915 76.326.011 116.255-.332 118.731-1.019 6.483-1.801 10.434-9.13 8.392-15.567-.368-1.157-11.024-16.005-23.681-32.995-12.657-16.99-23.559-31.694-24.227-32.675-1.091-1.601-2.556-.425-14.324 11.5" fill="#1976D2" fill-rule="evenodd"/></svg>