<svg width="120" height="42" viewBox="0 0 120 42" xmlns="http://www.w3.org/2000/svg">
    <g fill="none" fill-rule="evenodd">
        <path d="M91.733 22.328c.469 0 .895.295 1.06.733.15.394.063.677-.21.956l-.1.093-1.759 1.559a.134.134 0 0 0 .04.224l.048.009 2.416.009c1.051 0 1.916.551 1.996 1.558l.006.154v.266h-5.956c-.059 0-.109.039-.127.092l-.006.042v1.87c.01.238-.016.875-.504 1.41-.247.27-.685.588-1.401.64l-.203.006h-.658c-1.18 0-2.135-.734-2.135-1.913 0-.059.038-.109.091-.126l.042-.007h2.366a.133.133 0 0 0 .126-.091l.007-.043v-1.746c0-.059-.038-.11-.09-.127l-.043-.007h-4.57c-1.125 0-2.047-.607-2.129-1.688l-.006-.157.007-.043a.133.133 0 0 1 .085-.084l.042-.006h5.31c.034-.001.251-.006.717-.007h.489c.396.021.533-.116.61-.18.058-.048.442-.397.858-.778l.25-.23.361-.33-.083-.002-.08.002-5.45.009a.133.133 0 0 1-.133-.134c0-1.125.87-1.863 1.976-1.928l.159-.005h6.58zM63.53 24.925c.16 0 .29.133.285.293l-.046 1.591-.019.132c-.009.103-.016.598-.023.701-.017.235-.034.476-.073.708-.326 1.913-1.955 3.4-3.873 3.535-.42.029-1.48.035-1.993.035a.282.282 0 0 1-.281-.29l.028-1.636a.285.285 0 0 1 .285-.28h1.147c1.434.027 2.365-1 2.47-2.338v-.028l.068-2.148a.285.285 0 0 1 .285-.275h1.74zm7.83 0c.142 0 .261.096.296.227l.01.068.068 2.128v.028c.1 1.282.96 2.28 2.293 2.336l.177.002h1.126c.143 0 .263.098.296.232l.01.069.028 1.594a.303.303 0 0 1-.303.311c-.52 0-1.557-.006-1.972-.035-1.918-.135-3.546-1.622-3.872-3.535a7.415 7.415 0 0 1-.073-.707c-.007-.103-.015-.6-.024-.702l-.016-.113-.002-.019-.046-1.57a.306.306 0 0 1 .235-.306l.07-.008h1.7zm32.742-17.066c.01.008.033.041.022.158l-.005 1.568c-.003.244-.02.287-.15.297a2.471 2.471 0 0 0-1.762.974l9.926-.009c.22-.015 1.361-.049 2.185.72.32.297.695.816.75 1.638l.008.212-.003 2.076c.014.294.003 1.352-.722 2.13-.297.319-.816.694-1.639.75l-.212.007h-10.615a.186.186 0 0 0-.175.127l-.01.058v.213c0 .05.019.096.054.131.023.023.052.04.083.048l.048.007h10.738c.073 0 .133.06.133.133 0 .89-.684 1.62-1.554 1.695l-.147.006h-9.175a.186.186 0 0 0-.176.127l-.01.058v.135a.185.185 0 0 0 .137.18l.049.006h13.429c.242.008 1.493.094 2.466 1.096.612.63.97 1.461 1.066 2.48l.019.258h.008l.002.42v4.285c.011.273-.021.95-.52 1.486-.22.238-.6.517-1.192.566l-.184.007h-1.884v-.49c0-.838.583-1.542 1.364-1.73l.149-.029v-4.126c.009-.708-.144-1.226-.454-1.546-.324-.332-.762-.396-.866-.406l-.02-.002h-14.662c-.278 0-.556-.083-.769-.262a1.128 1.128 0 0 1-.403-.75l-.006-.125.01-3.902-.009.001v-1.617l.001-.485.002-1.047.002-.537c.004-1.429.013-2.784.031-3.035.135-1.918 1.622-3.547 3.535-3.872.231-.04.473-.056.706-.073.103-.008.207-.015.31-.024.044-.004.078.001.091.014zm4.177 16.84c.1 0 .181.082.181.183v4.806l1.667.001c1.378.026 2.545-.92 2.729-2.18l.016-.138.044-2.207a.23.23 0 0 1 .168-.22l.061-.009 1.538.008c.108 0 .219.091.248.197l.008.054-.027 2.07a.278.278 0 0 1-.001.044 21.29 21.29 0 0 0-.023.31c-.017.233-.035.475-.074.706-.325 1.914-1.954 3.4-3.872 3.535-.215.015-1.146.024-2.216.03v.006h-1.376l-.64-.001h-1.827l-.004-.011a29.43 29.43 0 0 1-1.14-.024c-1.92-.135-3.548-1.621-3.873-3.535-.04-.231-.056-.473-.073-.707a21.297 21.297 0 0 0-.024-.309.262.262 0 0 1 0-.051l-.026-2.063c0-.127.13-.251.256-.251l1.52-.009c.126 0 .229.102.229.229l.061 2.199v.012l.015.135c.184 1.26 1.352 2.206 2.73 2.18l2.096-.001v-4.806c0-.1.082-.182.183-.182h1.446zm-44.8-16.97c.186 0 .337.15.336.337l-.024 5.166.442-.002 2.445-.008h.583v.015h2.246l.024-5.174a.336.336 0 0 1 .336-.335h1.626c.185 0 .336.152.335.338l-.025 5.17h.397c1.073-.02 1.808-.379 2.181-1.27l.066-.173a1.476 1.476 0 0 1 1.373-1.048h.026l.76-.002c.117-.01.15.013.159.022.012.013.017.047.013.092l-.024.308c-.016.234-.034.476-.073.707-.325 1.914-1.954 3.4-3.872 3.535-.12.008-.497.015-1.014.02l-.03 5.91h.435c1.073-.02 1.808-.38 2.181-1.27l.066-.173a1.476 1.476 0 0 1 1.373-1.048h.026l.76-.003c.117-.01.15.013.159.022.012.013.017.047.013.092l-.024.309c-.016.233-.034.475-.073.706-.325 1.914-1.954 3.4-3.872 3.535-.329.023-2.56.032-4.364.035h-.501l-1.855.001v-.016l-4.783.002c-1.256-.019-2.036.382-2.402 1.461a1.476 1.476 0 0 1-1.368 1.054h-.026l-.76.006c-.117.01-.15-.013-.158-.021-.014-.014-.019-.047-.015-.092.009-.103.016-.206.023-.309.016-.234.032-.475.07-.707.306-1.845 1.822-3.298 3.647-3.53l.204-.02c.115-.01.458-.016.934-.022l.029-5.92h-.178c-1.186-.018-1.949.34-2.337 1.288l-.065.173a1.476 1.476 0 0 1-1.368 1.054h-.026l-.76.006c-.117.01-.15-.013-.158-.021-.014-.014-.019-.047-.015-.092.009-.103.016-.206.023-.31.016-.233.032-.474.07-.706.306-1.845 1.822-3.298 3.647-3.53l.204-.02c.117-.01.476-.017.972-.022l.025-5.186a.335.335 0 0 1 .335-.335h1.627zm22.025-.206.05.019.57.302c.59.313.927.969.805 1.625-.092.494-.093 1.083.222 1.565l.105.14.576.74.578-.74c.371-.445.42-1.013.357-1.514l-.022-.149a1.603 1.603 0 0 1 .71-1.613l.127-.075.47-.25a.253.253 0 0 1 .351.121c.322.725 1.095 2.892-.19 4.64l-.141.18-.887 1.136.064.081.823 1.045c.987 1.184.953 2.597.723 3.63l-.027.114c1.242.143 2.42.377 3.527.7a.146.146 0 0 0 .181-.094l.008-.047v-1.55a.15.15 0 0 0-.103-.142l-.047-.008h-2.496a.15.15 0 0 1-.142-.103l-.008-.047v-1.534a.15.15 0 0 1 .103-.143l.047-.007h2.496a.15.15 0 0 0 .142-.103l.008-.048v-1.093a.15.15 0 0 0-.103-.142l-.047-.008h-2.496a.15.15 0 0 1-.142-.102L91.688 14v-1.534a.15.15 0 0 1 .103-.143l.047-.008h2.722v-.096c-.054-1.358-1.052-2.475-2.337-2.575-.108-.009-.16-.04-.159-.19.005-.575.005-1.15 0-1.724 0-.078.017-.102.025-.11.014-.013.048-.018.092-.014l.309.024c.234.017.475.034.707.073 1.913.325 3.4 1.954 3.535 3.873.038.543.03 1.1.02 1.643v6.834c0 .057.035.11.085.135.596.302.916.527.956.554.26.187.428.474.466.787l.008.136v1.566a.15.15 0 0 1-.103.142l-.047.007h-1.252a.867.867 0 0 1-.863-.79.517.517 0 0 0-.276-.42c-1.32-.668-3.588-1.435-7.144-1.538a36.105 36.105 0 0 0-1.75 0c-3.554.104-5.82.87-7.14 1.538a.518.518 0 0 0-.276.42.867.867 0 0 1-.864.79h-1.251a.15.15 0 0 1-.15-.15v-1.565c0-.364.177-.71.474-.923.04-.027.36-.252.956-.554a.155.155 0 0 0 .085-.134V13.22c-.01-.542-.018-1.1.02-1.643.135-1.919 1.622-3.548 3.536-3.873.23-.04.472-.056.706-.073a15.967 15.967 0 0 0 .35-.025l.03.005.02.01c.008.008.026.032.025.11-.004.574-.004 1.149 0 1.724.002.15-.05.181-.158.19-1.285.1-2.283 1.217-2.337 2.575l-.001.096h2.723a.15.15 0 0 1 .15.15v1.535a.15.15 0 0 1-.15.15h-2.496a.15.15 0 0 0-.15.15v1.093c0 .083.067.15.15.15h2.496a.15.15 0 0 1 .15.15v1.535a.15.15 0 0 1-.15.15h-2.496a.15.15 0 0 0-.15.15v1.55c0 .1.093.17.188.141a21.36 21.36 0 0 1 3.77-.726c-.235-.984-.306-2.347.55-3.524l.152-.194.823-1.045.063-.08-.886-1.137c-1.48-1.776-.665-4.068-.332-4.819l.032-.07a.185.185 0 0 1 .21-.102zM66.09 15.427h-2.31l-.027 5.905c1.122-.005 2.26-.008 2.925-.01h.583v.015h2.208l.028-5.898-1.052.003h-.501l-1.855.001v-.016zm21.743-.044-.58.737c-.571.685-.377 1.662-.183 2.24l.583-.006h.112c.278 0 .555.004.828.012l.022-.064c.175-.545.329-1.396-.1-2.046l-.101-.136-.58-.737zm24.974.035h-11.1v.508c0 .033.008.065.024.093l.03.039c.023.023.052.04.083.048l.048.006H112.5c.143 0 .185-.03.186-.03.066-.069.112-.259.12-.413l.001-.087v-.164zm-.367-2.295-10.542.002a.185.185 0 0 0-.176.126l-.01.058v.508h11.095v-.4a.423.423 0 0 0-.027-.18c-.045-.046-.152-.092-.34-.114zM94.151 35.764c.157 0 .315.013.474.04.818.14 1.513.622 1.904 1.322.213.381.316.808.315 1.304-.002.785-.003 1.493.002 2.206 0 .055-.006.09-.02.103-.014.013-.045.02-.096.018-.311-.01-.62-.007-.961-.002-.047.003-.07-.009-.074-.015-.01-.01-.014-.033-.012-.067a4.19 4.19 0 0 0 .002-.263V40.187l-.099.067a7.231 7.231 0 0 0-.249.177c-.169.125-.33.242-.504.323-.432.203-.931.203-1.526 0-.857-.292-1.418-.85-1.669-1.659-.323-1.042-.06-1.946.783-2.687a2.605 2.605 0 0 1 1.73-.644zm-15.206.001a2.716 2.716 0 0 1 2.432 1.504c.162.326.24.701.24 1.149V39.8l.003.84c.001.051-.006.084-.02.098-.013.013-.047.019-.1.018-.317-.01-.63-.01-.93 0-.052.002-.086-.005-.1-.02-.013-.015-.018-.048-.013-.098.006-.079.005-.157.003-.247l-.001-.137v-.126l-.101.076-.055.04a.265.265 0 0 0-.054.045c-.42.49-.983.686-1.672.583-.939-.14-1.621-.624-2.03-1.436-.576-1.143-.198-2.497.897-3.221.449-.297.972-.45 1.5-.45zm-19.68 0c.3 0 .6.05.892.148.694.234 1.251.72 1.57 1.367.041.082.073.17.108.263.008.023.017.047.027.07a.605.605 0 0 1-.076.007h-.233c-.3.002-.611.004-.917-.005a.237.237 0 0 1-.153-.085c-.377-.523-.882-.727-1.498-.607-.567.109-.958.479-1.105 1.04-.181.696.122 1.354.773 1.677.605.3 1.357.115 1.75-.432.067-.094.13-.126.236-.122.243.005.49.004.729.004l.267-.001h.06c.04 0 .082.002.134.006a.202.202 0 0 1-.012.051c-.028.083-.052.154-.086.221-.389.783-1.024 1.277-1.889 1.47-1.09.244-2.27-.237-2.87-1.168a2.427 2.427 0 0 1-.307-1.977c.193-.701.69-1.296 1.367-1.634.39-.194.81-.292 1.234-.292zm12.641.264c1.337-.607 2.91-.109 3.585 1.135.236.435.328.92.28 1.48-.008.093-.039.104-.156.104l-2.683-.001h-1.22l.03.084c.106.298.275.52.532.694.595.405 1.32.334 1.846-.18.055-.053.126-.091.173-.092.336-.008.678-.007 1.009-.005h.253c.012 0 .028.004.058.01h.002c-.032.056-.062.11-.09.163l-.086.153c-.057.1-.115.195-.181.281-.492.647-1.264 1.026-2.118 1.039-.86.013-1.657-.347-2.177-.989a2.478 2.478 0 0 1-.495-2.142c.18-.769.705-1.401 1.438-1.734zm-6.893-.261c.902 0 1.782.439 2.288 1.238a2.49 2.49 0 0 1 .28 2.043 2.527 2.527 0 0 1-1.371 1.58c-.4.184-.79.276-1.131.263-1.171 0-2.175-.64-2.558-1.63a2.51 2.51 0 0 1 1.051-3.09c.45-.274.949-.404 1.44-.404zm22.799.051c.98-.171 1.792.108 2.413.83.36.419.553.929.578 1.515.012.278.009.562.006.836-.002.126-.003.25-.003.376v.063h.004v.292c-.001.308-.002.617.003.925 0 .057-.008.078-.015.086-.009.007-.03.016-.084.014a22.534 22.534 0 0 0-1.043 0c-.045.002-.075-.005-.087-.017-.013-.014-.02-.045-.02-.098.004-.656.005-1.362.001-2.158 0-.288-.02-.592-.156-.884-.214-.46-.635-.724-1.128-.708-.542.017-.924.28-1.104.76-.083.22-.13.48-.137.751-.017.751-.01 1.508-.003 2.24 0 .065-.01.09-.019.098-.012.012-.044.018-.099.016a18.12 18.12 0 0 0-.467-.005l-.423.002-.15.001c-.045.001-.07-.004-.079-.013-.007-.007-.011-.027-.011-.053.004-.288.003-.577.003-.866v-.602c.001-.403.008-.811.03-1.213.062-1.094.88-1.993 1.99-2.188zM69.573 34.25c.049 0 .08.006.094.02.014.014.021.045.021.093l-.002 2.225v1.407c0 .92.001 1.804.003 2.664 0 .04-.006.07-.017.08-.012.012-.04.017-.09.017a25.468 25.468 0 0 0-1.04 0c-.05.001-.083-.004-.096-.017-.014-.013-.02-.047-.02-.103.004-.796.003-1.592.003-2.389v-3.884c0-.043.002-.09.01-.1.013-.01.09-.01.143-.01h.663zm15.521 1.519c.025-.002.044 0 .052.008.004.003.014.017.013.061-.002.32-.002.64 0 .96.001.084-.028.101-.088.106-.745.058-1.318.73-1.303 1.53.008.423.007.855.006 1.272-.001.31-.003.622 0 .933 0 .055-.006.089-.018.101-.01.01-.033.02-.095.017-.165-.005-.33-.006-.493-.006-.187 0-.372.002-.55.005-.04 0-.051-.005-.062-.016-.008-.008-.017-.028-.016-.08.003-.313.002-.626.002-.94v-.835c.001-.337.006-.738.017-.905.076-1.069.904-1.976 1.97-2.157.129-.022.263-.032.393-.041l.172-.013zM78.98 36.89a1.439 1.439 0 0 0-1.445 1.447c.002.39.157.755.435 1.03.272.27.628.418 1.004.418a1.452 1.452 0 0 0 1.036-.44c.274-.278.423-.638.42-1.015a1.454 1.454 0 0 0-1.45-1.44zm15.227 0a1.43 1.43 0 0 0-1.022.421 1.446 1.446 0 0 0 .002 2.047c.273.275.635.426 1.017.426a1.44 1.44 0 0 0 1.025-.432 1.43 1.43 0 0 0 .427-1.018 1.453 1.453 0 0 0-1.45-1.444zm-29.181 0a1.383 1.383 0 0 0-1.007.409c-.28.276-.432.645-.43 1.038.003.797.642 1.447 1.424 1.448a1.44 1.44 0 0 0 1.427-1.445 1.429 1.429 0 0 0-1.414-1.45zm8.068.002c-.565 0-1.008.27-1.284.782-.037.069-.068.135-.034.191.033.057.109.062.197.062h2.254c.073-.003.145-.007.18-.066.04-.067-.005-.148-.02-.174-.286-.526-.722-.794-1.293-.795z" fill="#006E3C"/>
        <path d="M31.607 3.845c-3.793-3.793-9.943-3.793-13.737 0-3.793 3.793-3.793 9.943 0 13.736 3.794 3.794 9.944 3.794 13.737 0 3.793-3.793 3.793-9.943 0-13.736" fill="#FF6E0A"/>
        <path d="M29.958 22.247c-2.665.911-4.29 3.47-5.215 6.027l-.001.048-.002-.048c-.925-2.557-2.55-5.116-5.214-6.027-3.357-1.15-6.784-.114-9.16 2.953l14.376 15.748L39.117 25.2c-2.376-3.067-5.803-4.103-9.16-2.953" fill="#00BE6A"/>
        <path d="M47.995 37.096 39.117 25.2 24.742 40.242 10.366 25.2 1.488 37.096a2.445 2.445 0 0 0-.225 2.569A2.383 2.383 0 0 0 3.393 41H46.09c.899 0 1.715-.511 2.13-1.335a2.445 2.445 0 0 0-.226-2.569" fill="#006E3C"/>
    </g>
</svg>
