<svg width="33" height="32" viewBox="0 0 33 32" xmlns="http://www.w3.org/2000/svg">
    <path d="M16.5.5C25.328.5 32.484 7.44 32.484 16c0 8.56-7.156 15.5-15.984 15.5S.516 24.56.516 16C.516 7.44 7.672.5 16.5.5zm7.219 7.75H9.28l-.173.005C7.623 8.342 6.445 9.537 6.445 11v10l.005.168c.09 1.44 1.323 2.582 2.831 2.582H23.72l.173-.005c1.485-.087 2.663-1.282 2.663-2.745V11l-.005-.168c-.09-1.44-1.323-2.582-2.831-2.582zM7.99 11.093l6.373 4.363.185.117c1.203.705 2.94.668 4.087-.117l6.371-4.362V21l-.006.128c-.066.63-.615 1.122-1.282 1.122H9.28l-.132-.006C8.5 22.18 7.992 21.647 7.992 21v-9.907zM23.72 9.75c.16 0 .312.028.453.08l-6.428 4.4-.14.086c-.682.372-1.723.342-2.348-.086l-6.428-4.4c.141-.052.294-.08.453-.08z" fill="#FFF" fill-rule="evenodd"/>
</svg>
