<svg width="33" height="32" viewBox="0 0 33 32" xmlns="http://www.w3.org/2000/svg">
    <path d="M16.5.5C25.328.5 32.484 7.44 32.484 16c0 8.56-7.156 15.5-15.984 15.5S.516 24.56.516 16C.516 7.44 7.672.5 16.5.5zM21.14 7H11.86c-2.563 0-4.64 2.015-4.64 4.5v9c0 2.485 2.077 4.5 4.64 4.5h9.281c2.564 0 4.641-2.015 4.641-4.5v-9c0-2.485-2.077-4.5-4.64-4.5zm0 1.8c1.538 0 2.785 1.209 2.785 2.7v9c0 1.491-1.247 2.7-2.785 2.7H11.86c-1.538 0-2.785-1.209-2.785-2.7v-9c0-1.491 1.247-2.7 2.785-2.7zm-4.64 4.14c-2.148 0-3.887 1.687-3.887 3.769 0 2.081 1.74 3.769 3.886 3.769 2.148 0 3.888-1.688 3.888-3.769 0-2.082-1.74-3.769-3.888-3.769zm0 1.8c1.121 0 2.03.881 2.03 1.969 0 1.087-.909 1.968-2.03 1.968-1.121 0-2.031-.881-2.031-1.968 0-1.088.91-1.97 2.03-1.97zm4.524-4.478c-.769 0-1.393.605-1.393 1.351s.624 1.35 1.393 1.35c.77 0 1.392-.604 1.392-1.35 0-.746-.622-1.35-1.392-1.35z" fill="#FFF" fill-rule="evenodd"/>
</svg>
