<svg width="33" height="32" viewBox="0 0 33 32" xmlns="http://www.w3.org/2000/svg">
    <path d="M16.5.5C25.328.5 32.484 7.44 32.484 16c0 8.56-7.156 15.5-15.984 15.5S.516 24.56.516 16C.516 7.44 7.672.5 16.5.5zm-.006 6.503a11.466 11.466 0 0 0-3.058.361c-2.296.577-4.272 1.66-5.73 3.508-1.298 1.649-1.794 3.507-1.37 5.552.383 1.858 1.456 3.309 2.974 4.465 1.595 1.216 3.43 1.873 5.424 2.173.774.117 1.232.32 1.07 1.313-.057.356-.107.714-.171 1.069-.084.473.12.656.595.504.248-.08.49-.185.72-.307a37.86 37.86 0 0 0 5.367-3.516c1.306-1.014 2.522-2.116 3.422-3.503.95-1.462 1.28-3.048.953-4.745-.364-1.898-1.433-3.385-2.977-4.56-2.114-1.61-4.554-2.3-7.22-2.314zm2.376 5.857c.748-.04.786-.005.786.729v3.55c-.002.545-.023.537-.57.572-.412.028-.664-.112-.896-.437-.534-.747-1.11-1.466-1.698-2.237-.01.111-.023.18-.024.25 0 .693-.005 1.388.002 2.083.003.234-.082.339-.334.335-.967-.014-.876.11-.877-.816l.002-2.406-.007-1.203c-.003-.291.116-.399.402-.42.438-.034.775.036 1.052.443.51.75 1.094 1.45 1.647 2.171l.062-.018.001-2.136c.001-.38.06-.438.452-.46zm-8.9 0c.708-.031.732-.009.732.673 0 .9.007 1.8-.005 2.7-.003.228.068.312.311.305.505-.015 1.01 0 1.516-.006.255-.003.366.103.364.353-.008.93.085.814-.809.817-.738.003-1.476-.006-2.213.005-.278.003-.379-.106-.375-.366.008-.685.003-1.37.003-2.055 0-.664-.002-1.33 0-1.995 0-.351.051-.401.415-.429l.06-.002zm3.85-.001c.779-.048.826-.01.826.739v3.663c-.001.41-.032.443-.442.441l-.229.001h-.179c-.31-.002-.356-.044-.36-.34v-.17c.001-.066.002-.138.001-.22v-1.67c0-.684.013-1.368-.005-2.051-.008-.288.12-.377.388-.393zm8.15-.003 1.26.007c.364.004.435.087.444.443.02.742.008.753-.756.753-.385 0-.77.012-1.152-.004-.259-.01-.275.126-.27.314.007.179-.027.355.266.347.505-.015 1.01.005 1.516-.008.275-.007.381.109.397.361.049.777.019.812-.777.812-.385 0-.77.01-1.154-.003-.215-.007-.242.097-.246.222v.11c-.003.175-.016.334.254.327.506-.013 1.011.004 1.517-.006.27-.007.383.109.404.36.063.766.023.812-.77.812h-2.245c-.34-.002-.408-.063-.411-.395-.005-.676-.002-1.35-.002-2.026 0-.646-.002-1.293 0-1.938.002-.398.07-.478.466-.482.839-.008 1.679-.008 2.518.001z" fill="#FFF" fill-rule="evenodd"/>
</svg>
