<svg width="32" height="32" viewBox="0 0 32 32" xmlns="http://www.w3.org/2000/svg">
    <path d="M16 .5C24.56.5 31.5 7.44 31.5 16c0 8.56-6.94 15.5-15.5 15.5C7.44 31.5.5 24.56.5 16 .5 7.44 7.44.5 16 .5zm3.629 7h-3.057c-1.782 0-3.231 1.37-3.231 3.053v2.423h-1.606c-.118 0-.235.092-.235.222v2.516c0 .11.098.222.235.222h1.606v8.342c0 .11.098.222.235.222h3.232c.118 0 .235-.092.235-.222v-8.361h2.33a.245.245 0 0 0 .236-.203l.196-2.498c.019-.13-.098-.24-.235-.24h-2.547V11.2c0-.426.353-.758.804-.758h1.802c.117 0 .234-.093.234-.222V7.722a.232.232 0 0 0-.234-.222z" fill="#FFF" fill-rule="evenodd"/>
</svg>
