
<svg width="265" height="44" viewBox="0 0 265 44" fill="none" xmlns="http://www.w3.org/2000/svg">
<g clip-path="url(#clip0_838_21913)">
<path d="M175.71 16.5002C173.11 17.6802 171.25 19.9202 170.61 22.6502C169.98 25.3202 170.62 28.0902 172.36 30.2502C174.2 32.5202 177.03 33.8002 180.08 33.7502C183.11 33.7002 185.85 32.3602 187.59 30.0702C187.94 29.6102 188.23 29.0902 188.53 28.5302C188.63 28.3402 188.74 28.1502 188.85 27.9502C188.74 27.9302 188.69 27.9202 188.64 27.9202H187.74C186.57 27.9102 185.35 27.9102 184.16 27.9402C183.99 27.9402 183.74 28.0802 183.55 28.2702C181.68 30.0902 179.12 30.3402 177.01 28.9102C176.1 28.2902 175.5 27.5102 175.12 26.4502L175.01 26.1502H179.33C182.5 26.1502 185.67 26.1502 188.83 26.1502C188.83 26.1502 188.83 26.1502 188.84 26.1502C189.26 26.1502 189.36 26.1102 189.39 25.7802C189.56 23.7902 189.23 22.0802 188.4 20.5302C186.03 16.1202 180.45 14.3502 175.71 16.5002ZM184.57 22.9902C184.44 23.2002 184.19 23.2202 183.93 23.2302C182.95 23.2302 181.98 23.2302 181 23.2302H178.85C178.42 23.2302 178 23.2302 177.57 23.2302C177.03 23.2302 176.48 23.2302 175.94 23.2302C175.63 23.2302 175.36 23.2102 175.24 23.0102C175.12 22.8102 175.23 22.5802 175.36 22.3302C176.34 20.5202 177.91 19.5602 179.9 19.5602H179.91C181.94 19.5602 183.48 20.5102 184.5 22.3802C184.56 22.4702 184.71 22.7602 184.57 22.9902Z" fill="white"/>
<path d="M210.14 26.8998V24.9698C210.14 23.3798 209.86 22.0498 209.29 20.8998C208.06 18.4398 205.83 16.6098 203.17 15.8998C202.35 15.6798 201.51 15.5698 200.67 15.5698C198.8 15.5698 196.94 16.1198 195.35 17.1698C191.47 19.7398 190.13 24.5398 192.17 28.5898C193.62 31.4698 196.04 33.1798 199.37 33.6798C201.81 34.0498 203.8 33.3498 205.29 31.6198C205.34 31.5598 205.4 31.5198 205.49 31.4598C205.54 31.4298 205.6 31.3798 205.68 31.3198L206.04 31.0498V31.4998C206.04 31.6798 206.04 31.8398 206.05 31.9898C206.06 32.3098 206.06 32.5898 206.04 32.8698C206.03 33.0498 206.04 33.1698 206.09 33.2198C206.14 33.2698 206.26 33.2998 206.44 33.2898C207.5 33.2598 208.61 33.2598 209.74 33.2898C209.93 33.2898 210.05 33.2698 210.09 33.2298C210.14 33.1798 210.16 33.0598 210.16 32.8798C210.13 30.8598 210.13 28.8798 210.14 26.8998ZM204.44 28.2498C203.46 29.2498 202.16 29.7998 200.8 29.8098C200.79 29.8098 200.78 29.8098 200.77 29.8098C199.44 29.8098 198.17 29.2898 197.21 28.3298C196.22 27.3498 195.68 26.0598 195.67 24.6798C195.66 23.3198 196.19 22.0298 197.15 21.0598C198.12 20.0898 199.4 19.5498 200.78 19.5498H200.79C203.6 19.5498 205.91 21.8398 205.93 24.6598C205.94 25.9898 205.41 27.2698 204.44 28.2498Z" fill="white"/>
<path d="M264.109 25.0101C264.109 23.2501 263.749 21.7401 262.999 20.3901C261.609 17.9101 259.149 16.2001 256.249 15.7001C255.689 15.6001 255.129 15.5601 254.569 15.5601C252.289 15.5601 250.119 16.3601 248.429 17.8401C245.449 20.4701 244.509 23.6701 245.659 27.3701C246.549 30.2401 248.539 32.2201 251.569 33.2501C253.679 33.9701 255.449 33.9701 256.979 33.2501C257.599 32.9601 258.159 32.5401 258.769 32.1001C259.059 31.8901 259.349 31.6801 259.649 31.4701L259.999 31.2301V31.6501C259.999 31.7701 259.999 31.9001 259.999 32.0201C259.999 32.3201 260.009 32.6401 259.989 32.9501C259.979 33.0701 259.999 33.1501 260.029 33.1901C260.049 33.2101 260.129 33.2501 260.299 33.2401C261.509 33.2201 262.599 33.2101 263.709 33.2501C263.889 33.2601 263.999 33.2301 264.049 33.1901C264.099 33.1401 264.119 33.0201 264.119 32.8301C264.099 30.3001 264.109 27.7901 264.109 25.0101ZM258.389 28.2801C257.409 29.2701 256.119 29.8101 254.759 29.8101C253.399 29.8101 252.119 29.2701 251.149 28.3001C250.179 27.3201 249.639 26.0301 249.639 24.6701C249.639 23.3001 250.169 22.0101 251.139 21.0401C252.099 20.0801 253.389 19.5501 254.749 19.5501H254.759C257.589 19.5601 259.889 21.8501 259.899 24.6701C259.899 26.0201 259.369 27.3001 258.389 28.2801Z" fill="white"/>
<path d="M151.28 15.5698C149.54 15.5698 147.77 16.0298 146.17 16.9998C142.38 19.3098 140.85 23.8098 142.45 27.9498C143.81 31.4598 147.36 33.7298 151.51 33.7298C152.72 33.7698 154.1 33.4498 155.52 32.7998C157.87 31.7198 159.64 29.6798 160.38 27.1998C161.11 24.7398 160.75 22.0998 159.39 19.9598C157.59 17.1298 154.47 15.5698 151.28 15.5698ZM151.28 29.8098C148.5 29.8098 146.24 27.4998 146.22 24.6798C146.21 23.2898 146.76 21.9798 147.75 20.9998C148.71 20.0498 149.98 19.5198 151.32 19.5498C154.14 19.5898 156.34 21.8498 156.33 24.6898C156.32 27.5198 154.06 29.8098 151.28 29.8098Z" fill="white"/>
<path d="M242.72 29.6201V28.5901H242.71V28.3701C242.71 27.9301 242.71 27.4801 242.72 27.0401C242.73 26.0701 242.74 25.0601 242.7 24.0701C242.61 21.9901 241.93 20.1801 240.65 18.7001C238.45 16.1401 235.57 15.1501 232.09 15.7601C228.16 16.4501 225.26 19.6401 225.04 23.5101C224.92 25.6501 224.92 27.8301 224.93 29.9501C224.93 30.9701 224.93 32.0001 224.92 33.0201C224.92 33.1101 224.93 33.1801 224.96 33.2101C224.99 33.2401 225.08 33.2601 225.24 33.2601H225.77C226.26 33.2601 226.77 33.2501 227.27 33.2501C227.82 33.2501 228.38 33.2501 228.93 33.2701C229.12 33.2701 229.24 33.2601 229.28 33.2101C229.31 33.1801 229.35 33.0901 229.35 32.8601C229.33 30.2601 229.3 27.5801 229.36 24.9201C229.38 23.9601 229.55 23.0401 229.84 22.2601C230.48 20.5601 231.83 19.6201 233.76 19.5601C235.51 19.5101 237 20.4401 237.76 22.0701C238.24 23.1001 238.31 24.1901 238.32 25.2001C238.33 28.0201 238.33 30.5301 238.32 32.8501C238.32 33.0401 238.34 33.1501 238.39 33.1901C238.43 33.2301 238.54 33.2601 238.7 33.2501C239.92 33.2201 241.16 33.2201 242.39 33.2501C242.59 33.2601 242.66 33.2201 242.69 33.2001C242.72 33.1701 242.75 33.1001 242.74 32.9001C242.72 31.8101 242.72 30.7201 242.72 29.6201Z" fill="white"/>
<path d="M131.32 19.5598C132.74 19.6198 133.96 20.2698 134.95 21.4798C135.23 21.8198 135.77 22.1298 136.21 22.1398C137.15 22.1598 138.09 22.1498 139.01 22.1498H139.84C139.92 22.1498 140.01 22.1398 140.11 22.1298C140.08 22.0498 140.05 21.9598 140.02 21.8798C139.9 21.5498 139.78 21.2398 139.64 20.9498C138.51 18.6498 136.53 16.9298 134.07 16.1098C133.04 15.7598 131.97 15.5898 130.91 15.5898C129.41 15.5898 127.92 15.9398 126.54 16.6298C124.14 17.8298 122.38 19.9398 121.69 22.4198C121.03 24.8298 121.42 27.3098 122.78 29.4298C124.91 32.7298 129.09 34.4398 132.96 33.5698C136.02 32.8898 138.28 31.1298 139.66 28.3598C139.78 28.1198 139.86 27.8698 139.97 27.5798C139.99 27.5198 140.01 27.4598 140.03 27.3998H140.01C139.73 27.3798 139.54 27.3798 139.32 27.3798C139 27.3798 138.69 27.3798 138.37 27.3798C137.62 27.3798 136.85 27.3898 136.09 27.3698C135.6 27.3598 135.15 27.5798 134.81 27.9398C133.19 29.5998 130.78 30.3598 128.71 29.3098C126.68 28.2798 125.62 26.3198 125.87 24.1698C126.16 21.4698 128.63 19.4298 131.32 19.5598Z" fill="white"/>
<path d="M167.85 10.5899C167.85 10.4199 167.82 10.3099 167.77 10.2599C167.72 10.2099 167.61 10.1899 167.44 10.1899C166.67 10.1999 165.89 10.1999 165.11 10.1999C164.81 10.1999 164.52 10.1999 164.22 10.1999C164.12 10.1999 164.02 10.1999 163.92 10.1999C163.74 10.1999 163.46 10.1999 163.42 10.2399C163.38 10.2799 163.38 10.5699 163.38 10.7399V21.7299V24.3699C163.38 27.1899 163.38 30.0099 163.37 32.8399C163.37 33.0399 163.39 33.1599 163.44 33.1999C163.49 33.2499 163.6 33.2599 163.78 33.2599C164.94 33.2299 166.1 33.2399 167.47 33.2599C167.64 33.2599 167.75 33.2399 167.79 33.1999C167.83 33.1599 167.85 33.0599 167.85 32.9099C167.84 26.0499 167.84 18.7499 167.85 10.5899Z" fill="white"/>
<path d="M222.459 15.5798C222.259 15.5998 222.049 15.6098 221.849 15.6298C221.389 15.6598 220.909 15.6998 220.449 15.7698C216.669 16.4098 213.739 19.6298 213.469 23.4198C213.389 24.5298 213.409 28.5498 213.409 28.5498V29.5898C213.409 30.6998 213.409 31.8098 213.399 32.9198C213.399 33.1098 213.429 33.1798 213.459 33.1998C213.499 33.2398 213.539 33.2498 213.679 33.2498C214.309 33.2398 214.959 33.2298 215.629 33.2298C216.209 33.2298 216.789 33.2398 217.379 33.2498C217.599 33.2598 217.689 33.2198 217.719 33.1898C217.769 33.1498 217.789 33.0198 217.789 32.8298C217.779 31.7298 217.779 30.6198 217.789 29.5198C217.789 28.0398 217.799 26.5098 217.769 25.0098C217.719 22.1798 219.749 19.7898 222.389 19.5898C222.599 19.5698 222.699 19.5098 222.699 19.2098C222.689 18.0798 222.689 16.9398 222.699 15.8098C222.699 15.6598 222.669 15.6098 222.649 15.5898C222.619 15.5798 222.549 15.5698 222.459 15.5798Z" fill="white"/>
<path d="M99.5604 41.3003C99.5604 40.2303 100.42 39.3503 101.5 39.3503C102 39.3503 102.38 39.3403 102.38 39.3403C103.8 39.3703 104.48 38.8103 104.67 37.2503C104.86 35.6803 104.91 33.3203 105.01 31.7303C105.04 31.3303 104.77 31.0103 104.41 31.0103C99.3805 31.0203 94.3504 31.0203 89.3104 31.0103H84.2605C83.0905 31.0203 81.9305 31.0203 80.7605 31.0103C76.5605 31.0103 77.1505 27.1803 77.1505 27.1803L77.2605 8.20031C77.2605 4.28031 78.6905 3.87031 80.8005 3.87031C82.6605 3.87031 84.5305 3.85031 86.3905 3.88031C86.9305 3.89031 87.3905 3.64031 87.6805 3.35031C87.9705 3.06031 88.3905 2.38031 88.3905 2.38031L89.2305 1.01031C89.5905 0.420313 90.2304 0.0703125 90.9204 0.0703125C92.4304 0.0703125 93.3905 1.69031 92.6605 3.02031L92.5405 3.24031C92.5405 3.24031 92.1405 3.88031 93.1505 3.88031C96.1305 3.88031 99.0505 3.88031 102.03 3.88031C104.83 3.88031 105.75 5.88031 105.75 9.05031C105.75 11.0803 105.75 13.2103 105.75 14.9703C105.75 18.1103 103.99 19.4703 102.09 19.4703C95.5104 19.4703 88.9304 19.4703 82.3504 19.4803C82.0904 19.4803 81.6304 19.6203 81.6004 19.7803C81.5004 20.2503 81.5604 20.7603 81.5904 21.2503C81.6004 21.3303 81.8105 21.4203 81.9305 21.4503C82.1005 21.4903 82.2804 21.4603 82.4504 21.4603C90.4404 21.4603 98.3805 21.4603 106.36 21.4603C107.44 21.4603 108.31 22.3303 108.31 23.4103V23.4303C108.31 24.5103 107.44 25.3803 106.37 25.3803C100.19 25.3703 86.2305 25.3203 82.3605 25.3403C82.0905 25.3403 81.6204 25.4503 81.5904 25.6003C81.5004 26.0703 81.5504 26.5903 81.5904 27.0803C81.6004 27.1603 81.8105 27.2603 81.9305 27.2803C82.1005 27.3203 82.2804 27.2903 82.4504 27.2903C90.2204 27.2903 97.9805 27.2903 105.75 27.2903C107.64 27.2903 109.26 28.7603 109.37 30.7103C109.45 31.9803 109.39 33.2803 109.26 34.5503C109.1 36.1303 108.92 38.7303 108.56 40.2603C108.08 42.3103 106.6 43.3803 104.71 43.3703C103.61 43.3603 102.45 43.3603 101.51 43.3603C100.44 43.3603 99.5705 42.4903 99.5705 41.4203L99.5604 41.3003ZM91.3905 10.2703C94.2105 10.2703 97.0305 10.2703 99.8505 10.2703C101.47 10.2703 101.34 10.5003 101.34 8.63031C101.34 8.12031 100.97 7.71031 100.52 7.71031C94.4604 7.71031 88.4004 7.71031 82.3504 7.71031C82.2604 7.71031 82.1804 7.71031 82.0904 7.71031C81.6804 7.69031 81.4704 7.88031 81.4904 8.36031C81.5004 8.72031 81.4904 9.07031 81.4904 9.43031C81.4904 9.90031 81.8405 10.2703 82.2605 10.2703C85.3005 10.2703 88.3505 10.2703 91.3905 10.2703ZM91.3905 16.1003C94.2304 16.1003 97.0605 16.1003 99.9005 16.1003C101.46 16.1003 101.34 16.3103 101.34 14.4603C101.34 13.9503 100.97 13.5303 100.52 13.5303C94.4604 13.5303 88.4104 13.5303 82.3504 13.5303C82.2804 13.5303 82.2105 13.5403 82.1405 13.5303C81.6805 13.4903 81.4505 13.7003 81.4805 14.2403C81.5005 14.5703 81.4805 14.9103 81.4805 15.2403C81.4805 15.7103 81.8205 16.1003 82.2505 16.1003C85.3005 16.1003 88.3405 16.1003 91.3905 16.1003Z" fill="white"/>
<path d="M96.4404 41.0403C96.9604 40.4303 97.2404 39.7403 97.3804 39.2603C97.4604 39.0003 97.5104 38.6703 97.5104 38.4103V35.0603C97.5104 33.9603 96.6204 33.0703 95.5204 33.0703C94.4204 33.0703 93.5304 33.9603 93.5304 35.0603V36.4203C93.5304 37.5203 92.6404 38.4103 91.5404 38.4103H90.3604C89.2604 38.4103 88.3704 37.5203 88.3704 36.4203V30.5703C88.3704 29.6103 87.6004 28.8403 86.6404 28.8403H86.2404C85.2804 28.8403 84.5104 29.6103 84.5104 30.5703V36.4203C84.5104 37.5203 83.6204 38.4103 82.5204 38.4103H81.1604C80.0604 38.4103 79.1704 37.5203 79.1704 36.4203V35.0603C79.1704 33.9603 78.2804 33.0703 77.1804 33.0703C76.0804 33.0703 75.1904 33.9603 75.1904 35.0603V38.6103C75.1904 38.8903 75.2504 39.1203 75.3004 39.3003C75.4404 39.7703 75.7204 40.4303 76.2204 41.0303C76.8204 41.7403 77.7404 42.3503 79.1504 42.4103H93.5404C94.9304 42.3503 95.8504 41.7503 96.4404 41.0403Z" fill="white"/>
<path d="M8.69969 2.81023L8.67969 6.20023L8.69969 2.74023C8.69969 2.76023 8.69969 2.79023 8.69969 2.81023Z" fill="#231F20"/>
<path d="M32.5007 39.3301L32.1807 39.3401H32.6207C32.5907 39.3401 32.5407 39.3301 32.5007 39.3301Z" fill="white"/>
<path d="M30.04 43.2002L30 43.3702L32.6 43.2902C32.65 43.2902 32.69 43.2802 32.73 43.2702C31.79 43.2602 30.64 43.2502 30.09 43.2102C30.07 43.2102 30.05 43.2002 30.04 43.2002Z" fill="white"/>
<path d="M34.1406 41.6901V40.9301C34.1406 40.8101 34.1206 40.6901 34.1006 40.5801L34.1206 41.8901C34.1306 41.8201 34.1406 41.7601 34.1406 41.6901Z" fill="white"/>
<path d="M34.1003 40.5703C34.1003 39.8803 33.3503 39.3703 32.6303 39.3403H32.1903H31.5503C28.9903 39.3903 27.3403 37.5603 27.1503 35.1703C27.1503 35.1703 27.1503 35.1503 27.1503 35.1203L27.0603 32.4103C27.0303 31.5103 26.3003 30.8003 25.4003 30.8003H24.6003C23.6603 30.8003 22.9103 31.5703 22.9403 32.5103L22.9903 34.1603C22.9903 34.1603 23.0203 34.3803 23.0203 34.3903C23.0403 34.5703 23.0503 35.4603 23.0603 35.6403C23.0903 36.0603 23.1203 36.4903 23.1903 36.9003C23.7703 40.2903 26.6403 42.9303 30.0403 43.1903C30.0603 43.1903 30.0703 43.2003 30.0903 43.2003C30.6403 43.2403 31.7903 43.2503 32.7303 43.2603C33.4603 43.1703 34.0303 42.6003 34.1203 41.8803L34.1003 40.5703Z" fill="white"/>
<path d="M1.60031 40.5703C1.60031 39.8803 2.35031 39.3703 3.07031 39.3403H3.51031H4.15031C6.71031 39.3903 8.36031 37.5603 8.55031 35.1703C8.55031 35.1703 8.55031 35.1503 8.55031 35.1203L8.64031 32.4103C8.67031 31.5103 9.40031 30.8003 10.3003 30.8003H11.0903C12.0303 30.8003 12.7803 31.5703 12.7503 32.5103L12.7003 34.1603C12.7003 34.1603 12.6703 34.3803 12.6703 34.3903C12.6503 34.5703 12.6403 35.4603 12.6303 35.6403C12.6003 36.0603 12.5703 36.4903 12.5003 36.9003C11.9203 40.2903 9.05031 42.9303 5.65031 43.1903C5.63031 43.1903 5.62031 43.2003 5.60031 43.2003C5.05031 43.2403 3.90031 43.2503 2.96031 43.2603C2.23031 43.1703 1.66031 42.6003 1.57031 41.8803L1.60031 40.5703Z" fill="white"/>
<path d="M35.7102 7.55986C35.7202 7.47986 35.7302 7.41986 35.7402 7.35986C35.7302 7.43986 35.7102 7.51986 35.7002 7.59986C35.7002 7.57986 35.7002 7.56986 35.7102 7.55986Z" fill="white"/>
<path d="M35.7102 21.9603C35.7202 21.8803 35.7302 21.8203 35.7402 21.7603C35.7302 21.8403 35.7102 21.9203 35.7002 22.0003C35.7002 21.9803 35.7002 21.9703 35.7102 21.9603Z" fill="white"/>
<path d="M35.7702 21.5102C35.7702 21.5002 35.7702 21.5002 35.7702 21.4902C35.7602 21.5702 35.7502 21.6402 35.7402 21.7102C35.7502 21.6502 35.7602 21.5802 35.7702 21.5102Z" fill="#231F20"/>
<path d="M34.32 19.9703C34.31 19.9703 34.3 19.9703 34.29 19.9703C34.26 19.9703 34.22 19.9603 34.19 19.9603H33.44C33.39 19.9603 33.35 19.9703 33.3 19.9703C33.05 19.9903 32.83 20.0903 32.63 20.2103L32.62 20.2203C32.54 20.2703 32.45 20.3203 32.38 20.3903C32.08 20.6503 31.86 21.0103 31.79 21.4303L31.73 21.7803L31.72 21.8503C31.38 23.8503 29.59 24.4603 27.36 24.4203H27.35H26.95L26.99 15.6203C26.99 14.6803 27.73 13.9003 28.67 13.8603C28.73 13.8603 28.77 13.8603 28.81 13.8503C32.21 13.6103 35.1 10.9803 35.7 7.59029C35.71 7.51029 35.73 7.43029 35.74 7.35029C35.75 7.27029 35.77 7.19029 35.77 7.11029C35.77 6.29029 35.11 5.62029 34.3 5.57029C34.27 5.57029 34.23 5.56029 34.2 5.56029H33.45C33.4 5.56029 33.36 5.57029 33.31 5.57029C32.64 5.63029 32.08 6.11029 31.93 6.75029V6.76029V6.75029L31.72 7.41029C31.11 9.34029 29.59 10.0203 27.35 9.98029H27.01L27.05 2.82029C27.05 1.85029 26.27 1.06029 25.3 1.06029H24.71C23.75 1.06029 22.97 1.84029 22.96 2.80029L22.93 8.22029C22.93 9.19029 22.14 9.97029 21.17 9.97029H18.92V9.94029C18.92 9.94029 16.9 9.94029 14.52 9.95029C13.56 9.95029 12.79 9.19029 12.75 8.25029L12.78 2.81029C12.78 1.84029 12 1.05029 11.03 1.05029H11.02H10.43C9.49 1.05029 8.73 1.79029 8.69 2.72029L8.68 6.20029L8.66 8.29029C8.65 9.22029 7.91 9.99029 6.98 10.0403C6.96 10.0403 6.94 10.0403 6.92 10.0403C3.51 10.3003 0.62 12.9603 0.06 16.3703C-0.08 17.1303 0.23 17.6003 0.23 17.6003C0.48 18.0303 0.93 18.3403 1.47 18.3703H2.44C3.08 18.3103 3.6 17.8703 3.78 17.2703C3.79 17.2403 3.8 17.2203 3.81 17.2003V17.1903C3.81 17.1803 3.81 17.1703 3.81 17.1603L4.04 16.4903C4.75 14.5903 6.08 13.8503 8.32 13.8903H8.64L8.6 22.6903C8.6 23.6303 7.86 24.4103 6.92 24.4803C3.51 24.7403 0.62 27.4003 0.06 30.8103C0.03 30.9403 0.02 31.0803 0 31.2303C0 31.2403 0 31.2503 0 31.2703C0 32.0903 0.63 32.7603 1.45 32.8203C1.48 32.8203 1.51 32.8303 1.55 32.8303H2.29C2.34 32.8303 2.38 32.8203 2.42 32.8203C3.09 32.7603 3.64 32.2803 3.79 31.6403V31.6303C3.85 31.4203 3.93 31.2003 4.03 30.9303C4.76 29.0403 6.07 28.2903 8.31 28.3303H16.83V28.3603C16.83 28.3603 27.8 28.3703 28.8 28.3003C32.22 28.0603 35.12 25.4103 35.7 22.0003C35.71 21.9103 35.72 21.8303 35.73 21.7403C35.74 21.6703 35.75 21.5903 35.76 21.5203C35.76 20.6903 35.12 20.0403 34.32 19.9703ZM22.87 22.6603C22.87 23.6303 22.08 24.4203 21.11 24.4203H18.93V24.3903C18.93 24.3903 16.88 24.3903 14.46 24.4003C13.48 24.4003 12.68 23.6103 12.69 22.6303L12.72 15.6503C12.72 14.6803 13.51 13.8903 14.48 13.8903H16.84V13.9203C16.84 13.9203 18.8 13.9203 21.14 13.9203C22.12 13.9203 22.91 14.7103 22.91 15.6903L22.87 22.6603Z" fill="white"/>
<path d="M67.3802 32.5704H67.2802V32.5604L61.3702 32.5504C60.9802 32.5504 60.8002 32.0704 61.0902 31.8104L63.6702 29.5304C64.8402 28.4904 64.3802 26.4504 62.8402 26.2104C62.7402 26.1904 62.6402 26.1904 62.5302 26.1904H51.5402C51.5402 26.1904 49.8902 26.1904 49.6902 26.1904H49.6002C48.8402 26.2604 48.2502 26.8904 48.2502 27.6704V28.3804C48.2502 29.2004 48.9102 29.8504 49.7102 29.8604L51.5102 29.8504L56.9302 29.8404C57.0202 29.8304 57.1302 29.8304 57.2202 29.8404C56.2202 30.7604 54.7602 32.1004 54.6002 32.2204C54.4602 32.3304 54.2202 32.5804 53.5102 32.5404C51.9602 32.5304 51.3502 32.5504 51.3502 32.5504L43.0502 32.5604H42.9602C42.2302 32.6304 41.6602 33.2304 41.6602 33.9704V34.6504C41.6602 35.4204 42.2702 36.0404 43.0302 36.0704H43.1302V36.0804H53.4202C53.6502 36.0804 53.8402 36.2704 53.8402 36.5004V39.2404C53.8402 39.4704 53.6502 39.6604 53.4202 39.6604H51.6702H51.6002C50.8502 39.7304 50.2602 40.3604 50.2602 41.1304V41.8404C50.2602 42.6504 50.9102 43.3004 51.7102 43.3104C51.7302 43.3104 51.7502 43.3204 51.7802 43.3104H52.5802H52.6502H54.1502C55.6402 43.3104 56.5302 42.6804 57.0102 42.1604C57.8802 41.2104 57.9302 40.0704 57.9102 39.6504V36.5004C57.9102 36.2704 58.1002 36.0804 58.3302 36.0804H59.0702L67.3702 36.0704H67.4602C68.1902 36.0004 68.7602 35.4004 68.7602 34.6604V33.9804C68.7502 33.2204 68.1402 32.6004 67.3802 32.5704Z" fill="white"/>
<path d="M73.3202 23.3602C73.2602 23.3202 72.8402 23.0202 72.0702 22.6102C71.7002 22.4102 71.4702 22.0302 71.4702 21.6102V9.88023C71.4902 8.94024 71.5002 7.97023 71.4302 7.03023C71.1902 3.61023 68.5402 0.710234 65.1302 0.130234C65.0302 0.110234 64.9202 0.100234 64.8202 0.0902344C64.6102 0.0602344 64.4002 0.0402344 64.1902 0.0202344C64.1502 0.0202344 64.1202 0.0202344 64.0802 0.0202344C63.1302 0.0202344 63.1302 0.880234 63.1302 0.880234C63.1302 0.900234 63.1602 2.49023 63.1602 2.49023C63.1602 2.80023 63.2602 3.13023 63.4402 3.36023C63.5502 3.49023 63.6902 3.58023 63.8602 3.63023C63.8602 3.64023 63.8602 3.63023 63.8602 3.63023C65.5602 3.83023 66.8502 5.20023 67.3402 6.94023C67.5402 7.65023 66.9802 8.36023 66.2402 8.36023H64.0002C63.1302 8.36023 62.4302 9.06024 62.4302 9.93023V10.0702C62.4302 10.9402 63.1302 11.6402 64.0002 11.6402H66.2802C66.9002 11.6402 67.4102 12.1502 67.4102 12.7702V12.9902C67.4102 13.6102 66.9002 14.1202 66.2802 14.1202H64.0002C63.1302 14.1202 62.4302 14.8202 62.4302 15.6902V15.8302C62.4302 16.7002 63.1302 17.4002 64.0002 17.4002H66.2802C66.9002 17.4002 67.4102 17.9102 67.4102 18.5302V19.2902C67.4102 20.0202 66.7302 20.5702 66.0202 20.3902C64.7202 20.0602 63.3702 19.8002 61.9702 19.6002C61.3602 19.5102 60.9102 18.9602 60.9902 18.3502C61.2202 16.6402 61.0402 14.5502 59.5502 12.7602L58.0802 10.9002L57.9702 10.7602L59.5502 8.73023C61.6702 6.18023 61.1502 3.04023 60.5502 1.22023C60.2802 0.400234 59.3502 0.0202344 58.5802 0.410234L57.2802 1.08023C57.1202 1.24023 56.6702 1.47023 56.8902 2.40023C57.1402 3.42023 57.4202 5.34023 56.5802 6.34023L56.4402 6.52023C55.9902 7.10023 55.1102 7.10023 54.6602 6.52023L54.5202 6.34023C53.6702 5.32023 53.9202 3.28023 54.1702 2.25023C54.3902 1.36023 53.8002 1.10023 53.8002 1.10023L52.5302 0.430234C51.7702 0.0202344 50.8202 0.400234 50.5502 1.23023C49.9602 3.06023 49.4302 6.19023 51.5502 8.74023L53.1302 10.7702L53.0202 10.9102L51.5502 12.7702C50.0702 14.5402 49.8802 16.6102 50.1002 18.3102C50.1802 18.9302 49.7302 19.4702 49.1102 19.5502C47.5602 19.7502 46.0602 20.0302 44.6302 20.3902C43.9202 20.5702 43.2402 20.0202 43.2402 19.2902V18.5002C43.2402 17.8802 43.7502 17.3702 44.3702 17.3702H46.6502C47.5202 17.3702 48.2202 16.6702 48.2202 15.8002V15.6602C48.2202 14.7902 47.5202 14.0902 46.6502 14.0902H44.3702C43.7502 14.0902 43.2402 13.5802 43.2402 12.9602V12.7402C43.2402 12.1202 43.7502 11.6102 44.3702 11.6102H46.6502C47.5202 11.6102 48.2202 10.9102 48.2202 10.0402V9.91023C48.2202 9.04023 47.5202 8.34023 46.6502 8.34023H44.4002C43.6602 8.34023 43.1002 7.64023 43.3002 6.93023C43.8002 5.10023 44.8202 3.58023 46.7102 3.58023C47.2602 3.58023 47.5202 2.97023 47.5202 2.44023C47.5202 2.44023 47.5502 0.870234 47.5502 0.840234C47.5502 0.840234 47.5602 -0.00976562 46.6102 -0.00976562C46.1902 -0.00976562 45.9302 0.0502344 45.5202 0.120234C42.1102 0.700234 39.4602 3.60023 39.2202 7.02023C39.1502 7.96023 39.1702 8.93023 39.1802 9.87023V21.6002C39.1802 22.0202 38.9502 22.4002 38.5802 22.6002C37.8102 23.0202 37.3902 23.3102 37.3302 23.3502C36.8002 23.7302 36.4902 24.3402 36.4902 24.9902V26.4802C36.4902 27.3502 37.1902 28.0502 38.0602 28.0502H38.8302C39.6902 28.0502 40.3902 27.3502 40.4002 26.4902V26.4702C40.3702 26.3502 40.4302 26.2002 40.5402 26.1402C42.8002 24.9002 46.9402 23.3602 53.6902 23.1502C53.8302 23.1502 53.9702 23.1402 54.1202 23.1402C54.3602 23.1302 54.6102 23.1302 54.8602 23.1302C55.0102 23.1302 55.1602 23.1302 55.3102 23.1302C55.4602 23.1302 55.6102 23.1302 55.7602 23.1302C56.0102 23.1302 56.2702 23.1302 56.5102 23.1402C56.6502 23.1402 56.7802 23.1502 56.9102 23.1502C63.6602 23.3502 67.8002 24.8902 70.0602 26.1302C70.1702 26.1902 70.2402 26.3502 70.2102 26.4802C70.2102 27.3402 70.9102 28.0402 71.7802 28.0402H72.5602C73.4302 28.0402 74.1302 27.3402 74.1302 26.4702V25.0002C74.1602 24.3502 73.8502 23.7402 73.3202 23.3602ZM56.9202 19.1302C56.5402 19.1202 56.1702 19.1102 55.7902 19.1102C55.6802 19.1102 55.5702 19.1002 55.4502 19.1002C55.4202 19.1002 55.3802 19.1002 55.3502 19.1002C55.3202 19.1002 55.2802 19.1002 55.2502 19.1002C55.1402 19.1002 55.0302 19.1102 54.9202 19.1102C54.6902 19.1102 54.4502 19.1202 54.2202 19.1202C53.8702 18.0902 53.5202 16.3502 54.5402 15.1202L54.6902 14.9302C55.1402 14.3602 56.0102 14.3602 56.4702 14.9302L56.6202 15.1202C57.6402 16.3602 57.2702 18.1102 56.9202 19.1302Z" fill="white"/>
</g>
<defs>
<clipPath id="clip0_838_21913">
<rect width="264.12" height="43.37" fill="white"/>
</clipPath>
</defs>
</svg>
